# xmcd
# 
# Track frame offsets:
#     150
#     14259
#     27995
#     36577
#     53810
# 
# Disc length: 1077
# 
# Revision: 0
# Processed by: cddbd v1.5.2PL0 Copyright (c) Steve Scherf et al.
# Submitted via: fre:ac v1.0.17
# 
DISCID=3b043305
DTITLE=Garbowski - Garbowski
DYEAR=2001
DGENRE=Alt. Rock
TTITLE0=1
TTITLE1=2
TTITLE2=3
TTITLE3=4
TTITLE4=5
EXTD=No comment
EXTT0=
EXTT1=
EXTT2=
EXTT3=
EXTT4=
PLAYORDER=
